# xmcd
#
# Track frame offsets:
#	150
#	17776
#	28673
#	44701
#	64112
#	86571
#	100361
#	112594
#	133225
#	154263
#	172032
#	185289
#	201466
#	221360
#	234194
#	245844
#	268290
#	284486
#	306659
#	321508
#
# Disc length: 4489 seconds
# Revision: 0
# Processed by: cddbd v1.5.2PL0 Copyright (c) Steve Scherf et al.
# Submitted via: dBpowerAMP V12.0
#
DISCID=37118714
DTITLE=Jennifer Crusie - The Cinderella Deal
DYEAR=1900
DGENRE=AudioBook
TTITLE0=03a
TTITLE1=03b
TTITLE2=03c
TTITLE3=03d
TTITLE4=03e
TTITLE5=03f
TTITLE6=03g
TTITLE7=03h
TTITLE8=04a
TTITLE9=04b
TTITLE10=04c
TTITLE11=04d
TTITLE12=04e
TTITLE13=05a
TTITLE14=05b
TTITLE15=05c
TTITLE16=05d
TTITLE17=05e
TTITLE18=05f
TTITLE19=05g (silence)
EXTD=
EXTT0=
EXTT1=
EXTT2=
EXTT3=
EXTT4=
EXTT5=
EXTT6=
EXTT7=
EXTT8=
EXTT9=
EXTT10=
EXTT11=
EXTT12=
EXTT13=
EXTT14=
EXTT15=
EXTT16=
EXTT17=
EXTT18=
EXTT19=
PLAYORDER=
